<svg xmlns="http://www.w3.org/2000/svg" width="620" height="179" viewBox="0 0 620 179" fill="none"><path d="M568.5 97L520 179L619 127L568.5 97Z" fill="#FF5151"></path><path d="M0 0H619.236V104.942H0V0Z" fill="#61338A"></path><path d="M573.473 97.3809H618.867L619 127L569 97.3809H573.473Z" fill="#61338A"></path><path d="M67.4795 52.9027C69.0147 53.2146 70.2381 53.9462 71.1496 55.0976C72.0851 56.225 72.5529 57.5563 72.5529 59.0916C72.5529 61.2265 71.8333 62.9176 70.394 64.1649C68.9787 65.3883 66.9158 66 64.2052 66H53.3028V40.5971H63.9893C66.556 40.5971 68.523 41.1608 69.8903 42.2882C71.2816 43.4156 71.9772 44.9988 71.9772 47.0378C71.9772 48.6209 71.5574 49.9163 70.7179 50.9238C69.9023 51.9312 68.8228 52.5909 67.4795 52.9027ZM58.3762 51.2476H62.9459C64.2172 51.2476 65.1767 50.9717 65.8244 50.42C66.496 49.8443 66.8319 49.0287 66.8319 47.9733C66.8319 46.9178 66.508 46.1022 65.8604 45.5265C65.2127 44.9508 64.2172 44.663 62.8739 44.663H58.3762V51.2476ZM63.1977 61.8621C64.541 61.8621 65.5725 61.5743 66.2921 60.9986C67.0118 60.3989 67.3716 59.5353 67.3716 58.4079C67.3716 57.2805 66.9998 56.4169 66.2561 55.8172C65.5365 55.1936 64.505 54.8817 63.1617 54.8817H58.3762V61.8621H63.1977ZM85.3187 45.8144C87.2617 45.8144 89.0008 46.2222 90.5361 47.0378C92.0953 47.8533 93.3186 49.0407 94.2062 50.5999C95.0937 52.1351 95.5375 53.9462 95.5375 56.0331C95.5375 58.1201 95.0937 59.9311 94.2062 61.4663C93.3186 63.0015 92.0953 64.1889 90.5361 65.0285C89.0008 65.8441 87.2617 66.2519 85.3187 66.2519C83.3757 66.2519 81.6246 65.8441 80.0654 65.0285C78.5302 64.1889 77.3189 63.0015 76.4313 61.4663C75.5438 59.9311 75.1 58.1201 75.1 56.0331C75.1 53.9462 75.5438 52.1351 76.4313 50.5999C77.3189 49.0407 78.5302 47.8533 80.0654 47.0378C81.6246 46.2222 83.3757 45.8144 85.3187 45.8144ZM85.3187 50.2041C83.9035 50.2041 82.7041 50.7079 81.7206 51.7154C80.7371 52.6988 80.2454 54.1381 80.2454 56.0331C80.2454 57.9282 80.7371 59.3794 81.7206 60.3869C82.7041 61.3704 83.9035 61.8621 85.3187 61.8621C86.734 61.8621 87.9334 61.3704 88.9169 60.3869C89.9004 59.3794 90.3921 57.9282 90.3921 56.0331C90.3921 54.1381 89.9004 52.6988 88.9169 51.7154C87.9334 50.7079 86.734 50.2041 85.3187 50.2041ZM108.334 45.8144C110.277 45.8144 112.016 46.2222 113.552 47.0378C115.111 47.8533 116.334 49.0407 117.222 50.5999C118.109 52.1351 118.553 53.9462 118.553 56.0331C118.553 58.1201 118.109 59.9311 117.222 61.4663C116.334 63.0015 115.111 64.1889 113.552 65.0285C112.016 65.8441 110.277 66.2519 108.334 66.2519C106.391 66.2519 104.64 65.8441 103.081 65.0285C101.546 64.1889 100.334 63.0015 99.4468 61.4663C98.5593 59.9311 98.1155 58.1201 98.1155 56.0331C98.1155 53.9462 98.5593 52.1351 99.4468 50.5999C100.334 49.0407 101.546 47.8533 103.081 47.0378C104.64 46.2222 106.391 45.8144 108.334 45.8144ZM108.334 50.2041C106.919 50.2041 105.72 50.7079 104.736 51.7154C103.753 52.6988 103.261 54.1381 103.261 56.0331C103.261 57.9282 103.753 59.3794 104.736 60.3869C105.72 61.3704 106.919 61.8621 108.334 61.8621C109.75 61.8621 110.949 61.3704 111.932 60.3869C112.916 59.3794 113.408 57.9282 113.408 56.0331C113.408 54.1381 112.916 52.6988 111.932 51.7154C110.949 50.7079 109.75 50.2041 108.334 50.2041ZM133.796 66L127.212 57.2925V66H122.138V39.3737H127.212V54.342L133.76 46.0663H139.769L131.386 55.9971L139.985 66H133.796ZM153.702 46.0663L159.136 59.5953L164.173 46.0663H169.75L157.552 75.4991H151.939L156.437 65.4243L148.053 46.0663H153.702ZM181.351 45.8144C183.294 45.8144 185.033 46.2222 186.569 47.0378C188.128 47.8533 189.351 49.0407 190.239 50.5999C191.126 52.1351 191.57 53.9462 191.57 56.0331C191.57 58.1201 191.126 59.9311 190.239 61.4663C189.351 63.0015 188.128 64.1889 186.569 65.0285C185.033 65.8441 183.294 66.2519 181.351 66.2519C179.408 66.2519 177.657 65.8441 176.098 65.0285C174.563 64.1889 173.351 63.0015 172.464 61.4663C171.576 59.9311 171.133 58.1201 171.133 56.0331C171.133 53.9462 171.576 52.1351 172.464 50.5999C173.351 49.0407 174.563 47.8533 176.098 47.0378C177.657 46.2222 179.408 45.8144 181.351 45.8144ZM181.351 50.2041C179.936 50.2041 178.737 50.7079 177.753 51.7154C176.77 52.6988 176.278 54.1381 176.278 56.0331C176.278 57.9282 176.77 59.3794 177.753 60.3869C178.737 61.3704 179.936 61.8621 181.351 61.8621C182.767 61.8621 183.966 61.3704 184.949 60.3869C185.933 59.3794 186.425 57.9282 186.425 56.0331C186.425 54.1381 185.933 52.6988 184.949 51.7154C183.966 50.7079 182.767 50.2041 181.351 50.2041ZM214.226 46.0663V66H209.152V61.9701C208.625 63.3134 207.749 64.3688 206.526 65.1364C205.326 65.8801 203.935 66.2519 202.352 66.2519C200.049 66.2519 198.214 65.4963 196.847 63.985C195.479 62.4738 194.796 60.3629 194.796 57.6523V46.0663H199.833V57.0766C199.833 58.6598 200.241 59.8951 201.057 60.7827C201.872 61.6462 202.976 62.078 204.367 62.078C205.83 62.078 206.993 61.6103 207.857 60.6747C208.721 59.7392 209.152 58.3959 209.152 56.6448V46.0663H214.226ZM223.912 49.8803C224.656 48.609 225.639 47.6135 226.863 46.8938C228.086 46.1502 229.453 45.7784 230.964 45.7784V51.2116H229.489C225.771 51.2116 223.912 52.9387 223.912 56.3929V66H218.839V46.0663H223.912V49.8803ZM249.416 45.8144C251.095 45.8144 252.535 46.2102 253.734 47.0018C254.933 47.7934 255.785 48.8608 256.289 50.2041V46.0663H261.326V66H256.289V61.8261C255.785 63.1695 254.933 64.2489 253.734 65.0645C252.535 65.8561 251.095 66.2519 249.416 66.2519C247.737 66.2519 246.226 65.8441 244.883 65.0285C243.539 64.2129 242.484 63.0375 241.716 61.5023C240.973 59.9431 240.601 58.1201 240.601 56.0331C240.601 53.9462 240.973 52.1351 241.716 50.5999C242.484 49.0407 243.539 47.8533 244.883 47.0378C246.226 46.2222 247.737 45.8144 249.416 45.8144ZM250.999 50.2401C249.416 50.2401 248.145 50.7558 247.185 51.7873C246.226 52.8188 245.746 54.2341 245.746 56.0331C245.746 57.8322 246.226 59.2475 247.185 60.2789C248.145 61.2864 249.416 61.7902 250.999 61.7902C252.535 61.7902 253.794 61.2744 254.777 60.243C255.785 59.1875 256.289 57.7842 256.289 56.0331C256.289 54.258 255.785 52.8548 254.777 51.8233C253.794 50.7678 252.535 50.2401 250.999 50.2401ZM277.834 45.8144C279.513 45.8144 281.024 46.2222 282.367 47.0378C283.711 47.8533 284.754 49.0407 285.498 50.5999C286.265 52.1351 286.649 53.9462 286.649 56.0331C286.649 58.1201 286.265 59.9431 285.498 61.5023C284.754 63.0375 283.711 64.2129 282.367 65.0285C281.024 65.8441 279.513 66.2519 277.834 66.2519C276.155 66.2519 274.715 65.8561 273.516 65.0645C272.341 64.2489 271.501 63.1695 270.997 61.8261V75.4991H265.924V46.0663H270.997V50.2041C271.501 48.8608 272.341 47.7934 273.516 47.0018C274.715 46.2102 276.155 45.8144 277.834 45.8144ZM276.251 50.2401C274.715 50.2401 273.444 50.7678 272.436 51.8233C271.453 52.8548 270.961 54.258 270.961 56.0331C270.961 57.7842 271.453 59.1875 272.436 60.243C273.444 61.2744 274.715 61.7902 276.251 61.7902C277.834 61.7902 279.105 61.2864 280.065 60.2789C281.024 59.2475 281.504 57.8322 281.504 56.0331C281.504 54.2341 281.024 52.8188 280.065 51.7873C279.105 50.7558 277.834 50.2401 276.251 50.2401ZM302.149 45.8144C303.828 45.8144 305.34 46.2222 306.683 47.0378C308.026 47.8533 309.07 49.0407 309.813 50.5999C310.581 52.1351 310.965 53.9462 310.965 56.0331C310.965 58.1201 310.581 59.9431 309.813 61.5023C309.07 63.0375 308.026 64.2129 306.683 65.0285C305.34 65.8441 303.828 66.2519 302.149 66.2519C300.47 66.2519 299.031 65.8561 297.832 65.0645C296.656 64.2489 295.817 63.1695 295.313 61.8261V75.4991H290.239V46.0663H295.313V50.2041C295.817 48.8608 296.656 47.7934 297.832 47.0018C299.031 46.2102 300.47 45.8144 302.149 45.8144ZM300.566 50.2401C299.031 50.2401 297.76 50.7678 296.752 51.8233C295.769 52.8548 295.277 54.258 295.277 56.0331C295.277 57.7842 295.769 59.1875 296.752 60.243C297.76 61.2744 299.031 61.7902 300.566 61.7902C302.149 61.7902 303.421 61.2864 304.38 60.2789C305.34 59.2475 305.819 57.8322 305.819 56.0331C305.819 54.2341 305.34 52.8188 304.38 51.7873C303.421 50.7558 302.149 50.2401 300.566 50.2401ZM323.766 45.8144C325.709 45.8144 327.448 46.2222 328.984 47.0378C330.543 47.8533 331.766 49.0407 332.654 50.5999C333.541 52.1351 333.985 53.9462 333.985 56.0331C333.985 58.1201 333.541 59.9311 332.654 61.4663C331.766 63.0015 330.543 64.1889 328.984 65.0285C327.448 65.8441 325.709 66.2519 323.766 66.2519C321.823 66.2519 320.072 65.8441 318.513 65.0285C316.978 64.1889 315.766 63.0015 314.879 61.4663C313.991 59.9311 313.548 58.1201 313.548 56.0331C313.548 53.9462 313.991 52.1351 314.879 50.5999C315.766 49.0407 316.978 47.8533 318.513 47.0378C320.072 46.2222 321.823 45.8144 323.766 45.8144ZM323.766 50.2041C322.351 50.2041 321.152 50.7079 320.168 51.7154C319.185 52.6988 318.693 54.1381 318.693 56.0331C318.693 57.9282 319.185 59.3794 320.168 60.3869C321.152 61.3704 322.351 61.8621 323.766 61.8621C325.182 61.8621 326.381 61.3704 327.364 60.3869C328.348 59.3794 328.84 57.9282 328.84 56.0331C328.84 54.1381 328.348 52.6988 327.364 51.7154C326.381 50.7079 325.182 50.2041 323.766 50.2041ZM336.995 40.3452C336.995 39.5296 337.283 38.87 337.858 38.3662C338.434 37.8385 339.19 37.5746 340.125 37.5746C341.061 37.5746 341.816 37.8385 342.392 38.3662C342.968 38.87 343.256 39.5296 343.256 40.3452C343.256 41.1368 342.968 41.7965 342.392 42.3242C341.816 42.8279 341.061 43.0798 340.125 43.0798C339.19 43.0798 338.434 42.8279 337.858 42.3242C337.283 41.7965 336.995 41.1368 336.995 40.3452ZM342.644 46.0663V66H337.571V46.0663H342.644ZM359.107 45.7784C361.41 45.7784 363.245 46.534 364.613 48.0452C365.98 49.5565 366.664 51.6794 366.664 54.414V66H361.626V54.9897C361.626 53.4065 361.218 52.1831 360.403 51.3196C359.587 50.432 358.472 49.9882 357.056 49.9882C355.617 49.9882 354.466 50.456 353.602 51.3915C352.739 52.327 352.307 53.6703 352.307 55.4214V66H347.234V46.0663H352.307V50.0602C352.835 48.7169 353.698 47.6734 354.898 46.9298C356.121 46.1622 357.524 45.7784 359.107 45.7784ZM381.778 61.6462V66H379.115C376.885 66 375.169 65.4603 373.97 64.3808C372.795 63.3014 372.207 61.5023 372.207 58.9836V50.3481H369.436V46.0663H372.207V41.1368H377.28V46.0663H381.742V50.3481H377.28V59.0556C377.28 60.0151 377.472 60.6867 377.856 61.0705C378.24 61.4543 378.887 61.6462 379.799 61.6462H381.778ZM410.796 45.7784C413.218 45.7784 415.125 46.534 416.517 48.0452C417.932 49.5325 418.64 51.6554 418.64 54.414V66H413.602V54.9897C413.602 53.4545 413.206 52.2791 412.415 51.4635C411.647 50.6239 410.58 50.2041 409.212 50.2041C407.797 50.2041 406.67 50.6479 405.83 51.5354C404.991 52.423 404.571 53.7183 404.571 55.4214V66H399.533V54.9897C399.533 53.4545 399.138 52.2791 398.346 51.4635C397.578 50.6239 396.511 50.2041 395.144 50.2041C393.728 50.2041 392.601 50.6479 391.761 51.5354C390.922 52.423 390.502 53.7183 390.502 55.4214V66H385.429V46.0663H390.502V49.8443C391.03 48.549 391.857 47.5535 392.985 46.8579C394.136 46.1382 395.468 45.7784 396.979 45.7784C398.586 45.7784 399.977 46.1622 401.153 46.9298C402.352 47.6974 403.252 48.8009 403.851 50.2401C404.475 48.8728 405.398 47.7934 406.622 47.0018C407.869 46.1862 409.26 45.7784 410.796 45.7784ZM441.843 55.2775C441.843 55.7813 441.783 56.357 441.663 57.0046H427.055C427.127 58.7797 427.606 60.087 428.494 60.9266C429.382 61.7662 430.485 62.186 431.804 62.186C432.98 62.186 433.951 61.8981 434.719 61.3224C435.51 60.7467 436.014 59.9671 436.23 58.9836H441.591C441.327 60.3749 440.764 61.6223 439.9 62.7257C439.037 63.8291 437.921 64.6927 436.554 65.3164C435.211 65.94 433.711 66.2519 432.056 66.2519C430.113 66.2519 428.386 65.8441 426.875 65.0285C425.364 64.1889 424.188 63.0015 423.349 61.4663C422.509 59.9311 422.089 58.1201 422.089 56.0331C422.089 53.9462 422.509 52.1351 423.349 50.5999C424.188 49.0407 425.364 47.8533 426.875 47.0378C428.386 46.2222 430.113 45.8144 432.056 45.8144C434.023 45.8144 435.738 46.2222 437.202 47.0378C438.689 47.8533 439.828 48.9808 440.62 50.42C441.435 51.8353 441.843 53.4545 441.843 55.2775ZM436.734 54.7738C436.806 53.1426 436.374 51.9073 435.438 51.0677C434.527 50.2281 433.4 49.8083 432.056 49.8083C430.689 49.8083 429.538 50.2281 428.602 51.0677C427.666 51.9073 427.151 53.1426 427.055 54.7738H436.734ZM457.319 45.7784C459.621 45.7784 461.456 46.534 462.824 48.0452C464.191 49.5565 464.875 51.6794 464.875 54.414V66H459.837V54.9897C459.837 53.4065 459.429 52.1831 458.614 51.3196C457.798 50.432 456.683 49.9882 455.268 49.9882C453.828 49.9882 452.677 50.456 451.813 51.3915C450.95 52.327 450.518 53.6703 450.518 55.4214V66H445.445V46.0663H450.518V50.0602C451.046 48.7169 451.909 47.6734 453.109 46.9298C454.332 46.1622 455.735 45.7784 457.319 45.7784ZM479.989 61.6462V66H477.327C475.096 66 473.381 65.4603 472.181 64.3808C471.006 63.3014 470.418 61.5023 470.418 58.9836V50.3481H467.648V46.0663H470.418V41.1368H475.491V46.0663H479.953V50.3481H475.491V59.0556C475.491 60.0151 475.683 60.6867 476.067 61.0705C476.451 61.4543 477.099 61.6462 478.01 61.6462H479.989ZM503.35 45.7784C505.652 45.7784 507.487 46.534 508.855 48.0452C510.222 49.5565 510.906 51.6794 510.906 54.414V66H505.868V54.9897C505.868 53.4065 505.46 52.1831 504.645 51.3196C503.829 50.432 502.714 49.9882 501.299 49.9882C499.859 49.9882 498.708 50.456 497.844 51.3915C496.981 52.327 496.549 53.6703 496.549 55.4214V66H491.476V46.0663H496.549V50.0602C497.077 48.7169 497.94 47.6734 499.14 46.9298C500.363 46.1622 501.766 45.7784 503.35 45.7784ZM524.581 45.8144C526.524 45.8144 528.263 46.2222 529.798 47.0378C531.357 47.8533 532.581 49.0407 533.468 50.5999C534.356 52.1351 534.8 53.9462 534.8 56.0331C534.8 58.1201 534.356 59.9311 533.468 61.4663C532.581 63.0015 531.357 64.1889 529.798 65.0285C528.263 65.8441 526.524 66.2519 524.581 66.2519C522.638 66.2519 520.887 65.8441 519.328 65.0285C517.792 64.1889 516.581 63.0015 515.693 61.4663C514.806 59.9311 514.362 58.1201 514.362 56.0331C514.362 53.9462 514.806 52.1351 515.693 50.5999C516.581 49.0407 517.792 47.8533 519.328 47.0378C520.887 46.2222 522.638 45.8144 524.581 45.8144ZM524.581 50.2041C523.166 50.2041 521.966 50.7079 520.983 51.7154C519.999 52.6988 519.507 54.1381 519.507 56.0331C519.507 57.9282 519.999 59.3794 520.983 60.3869C521.966 61.3704 523.166 61.8621 524.581 61.8621C525.996 61.8621 527.196 61.3704 528.179 60.3869C529.163 59.3794 529.654 57.9282 529.654 56.0331C529.654 54.1381 529.163 52.6988 528.179 51.7154C527.196 50.7079 525.996 50.2041 524.581 50.2041ZM566.918 46.0663L561.557 66H555.944L551.662 51.4995L547.273 66H541.659L536.334 46.0663H541.408L544.646 61.4663L549.072 46.0663H554.433L558.895 61.4663L562.169 46.0663H566.918Z" fill="white"></path></svg>